<svg xmlns="http://www.w3.org/2000/svg" viewBox="0 0 960 660" role="img" aria-labelledby="rag-pipeline-title rag-pipeline-desc" font-family="ui-sans-serif, system-ui, -apple-system, Segoe UI, Roboto, sans-serif">
  <title id="rag-pipeline-title">AgentOS RAG memory pipeline</title>
  <desc id="rag-pipeline-desc">A two-lane pipeline diagram. The top lane (ingestion) flows left to right: Documents → Chunker → Embedder → Writer. The Writer fans down into five swappable storage backends: SQLite with HNSW, Postgres with pgvector, Pinecone, Qdrant, and Neo4j. The bottom lane (retrieval) starts from a Query card, fans out to Dense HNSW search and Sparse BM25 search in parallel, both feeding into RRF fusion, then optionally through a Cohere rerank-v3.5 stage, terminating in a Top-K context block. A final Prompt Assembly bar at the bottom shows token-budgeted context with source attribution feeding the LLM.</desc>

  <defs>
    <style>
      .bg { fill: #0f172a; }
      .text { fill: #e2e8f0; }
      .title { fill: #f1f5f9; }
      .heading { fill: #f1f5f9; }
      .small { fill: #94a3b8; }
      .micro { fill: #64748b; }
      .lane-label { fill: #94a3b8; }
      .lane-track { stroke: #334155; }
      .stage { fill: #0f172a; stroke: #475569; }
      .stage-thin { fill: #0f172a; stroke: #475569; }
      .store { fill: #0b1220; stroke: #334155; }
      .assembly { fill: #1e1b4b; stroke: #a78bfa; }
      .arrow-line { stroke: #475569; }
      .arrow-thin { stroke: #334155; }
      .arrow-fan { stroke: #475569; }
      .arrow-head { fill: #475569; }
      .arrow-head-thin { fill: #334155; }
      .accent-ingest { stroke: #7c3aed; }
      .accent-chunk { stroke: #f59e0b; }
      .accent-embed { stroke: #10b981; }
      .accent-write { stroke: #0891b2; }
      .accent-dense { stroke: #ec4899; }
      .accent-sparse { stroke: #14b8a6; }
      .accent-fuse { stroke: #6366f1; }
      .accent-rerank { stroke: #f43f5e; }
      .accent-topk { stroke: #10b981; }
      .accent-query { stroke: #8b5cf6; }
      .opt-tag { fill: #422006; stroke: #d97706; }
      .opt-tag-text { fill: #fbbf24; }
          </style>
    <marker id="rag-arrow" viewBox="0 0 10 10" refX="9" refY="5" markerWidth="6" markerHeight="6" orient="auto-start-reverse">
      <path d="M 0 0 L 10 5 L 0 10 z" class="arrow-head"/>
    </marker>
    <marker id="rag-arrow-thin" viewBox="0 0 10 10" refX="9" refY="5" markerWidth="5" markerHeight="5" orient="auto-start-reverse">
      <path d="M 0 0 L 10 5 L 0 10 z" class="arrow-head-thin"/>
    </marker>
  </defs>

  <rect class="bg" x="0" y="0" width="960" height="660"/>

  <!-- Title block -->
  <text x="480" y="32" class="title" text-anchor="middle">AgentOS RAG Memory Pipeline</text>
  <text x="480" y="52" class="small" text-anchor="middle">Ingest once, retrieve many · hybrid search · swappable backends</text>

  <!-- ====================== INGESTION LANE ====================== -->
  <text x="40" y="90" class="lane-label">INGESTION</text>
  <line x1="40" y1="98" x2="920" y2="98" class="lane-track"/>

  <!-- Ingestion cards: 4 cards across, h=80 -->
  <!-- Card positions: x=60/280/500/720, w=200 -->
  <rect x="60" y="110" width="200" height="80" rx="8" class="stage accent-ingest"/>
  <text x="160" y="134" class="heading" text-anchor="middle">Documents</text>
  <text x="160" y="154" class="small" text-anchor="middle">PDF · MD · HTML · CSV · DOCX</text>
  <text x="160" y="172" class="micro" text-anchor="middle">Memory.ingest() · directory walk</text>

  <rect x="280" y="110" width="200" height="80" rx="8" class="stage accent-chunk"/>
  <text x="380" y="134" class="heading" text-anchor="middle">Chunker</text>
  <text x="380" y="154" class="small" text-anchor="middle">Recursive split · configurable overlap</text>
  <text x="380" y="172" class="micro" text-anchor="middle">Metadata + position carried per chunk</text>

  <rect x="500" y="110" width="200" height="80" rx="8" class="stage accent-embed"/>
  <text x="600" y="134" class="heading" text-anchor="middle">Embedder</text>
  <text x="600" y="154" class="small" text-anchor="middle">text-embedding-3-small (default)</text>
  <text x="600" y="172" class="micro" text-anchor="middle">Provider-swappable · batched calls</text>

  <rect x="720" y="110" width="200" height="80" rx="8" class="stage accent-write"/>
  <text x="820" y="134" class="heading" text-anchor="middle">Writer</text>
  <text x="820" y="154" class="small" text-anchor="middle">Vector index + entity graph</text>
  <text x="820" y="172" class="micro" text-anchor="middle">Provenance + audit log per write</text>

  <!-- Ingestion arrows: card-to-card -->
  <path class="arrow-line" d="M 260,150 L 280,150" marker-end="url(#rag-arrow)"/>
  <path class="arrow-line" d="M 480,150 L 500,150" marker-end="url(#rag-arrow)"/>
  <path class="arrow-line" d="M 700,150 L 720,150" marker-end="url(#rag-arrow)"/>

  <!-- ====================== STORE SUBSTRATE ====================== -->
  <text x="40" y="232" class="lane-label">STORE</text>
  <line x1="40" y1="240" x2="920" y2="240" class="lane-track"/>

  <!-- 5 store cards, w=155, gap=15, x: 60,230,400,570,740 -->
  <rect x="60" y="252" width="155" height="78" rx="8" class="store accent-write"/>
  <text x="137.5" y="276" class="heading" text-anchor="middle">SQLite · HNSW</text>
  <text x="137.5" y="294" class="small" text-anchor="middle">Embedded, zero-ops</text>
  <text x="137.5" y="312" class="micro" text-anchor="middle">Default · single-node</text>

  <rect x="230" y="252" width="155" height="78" rx="8" class="store accent-write"/>
  <text x="307.5" y="276" class="heading" text-anchor="middle">Postgres · pgvector</text>
  <text x="307.5" y="294" class="small" text-anchor="middle">Shared production</text>
  <text x="307.5" y="312" class="micro" text-anchor="middle">SQL joins + vectors</text>

  <rect x="400" y="252" width="155" height="78" rx="8" class="store accent-write"/>
  <text x="477.5" y="276" class="heading" text-anchor="middle">Pinecone</text>
  <text x="477.5" y="294" class="small" text-anchor="middle">Managed cloud</text>
  <text x="477.5" y="312" class="micro" text-anchor="middle">Autoscale · serverless</text>

  <rect x="570" y="252" width="155" height="78" rx="8" class="store accent-write"/>
  <text x="647.5" y="276" class="heading" text-anchor="middle">Qdrant</text>
  <text x="647.5" y="294" class="small" text-anchor="middle">Self-hosted vector DB</text>
  <text x="647.5" y="312" class="micro" text-anchor="middle">Rich filters · gRPC</text>

  <rect x="740" y="252" width="155" height="78" rx="8" class="store accent-write"/>
  <text x="817.5" y="276" class="heading" text-anchor="middle">Neo4j</text>
  <text x="817.5" y="294" class="small" text-anchor="middle">Knowledge graph</text>
  <text x="817.5" y="312" class="micro" text-anchor="middle">Drives GraphRAG</text>

  <!-- Writer-to-stores fan-out (5 arrows) -->
  <path class="arrow-fan" d="M 820,190 L 820,210 Q 820,220 810,225 L 145,245" marker-end="url(#rag-arrow-thin)"/>
  <path class="arrow-fan" d="M 820,190 L 820,210 Q 820,220 810,225 L 315,245" marker-end="url(#rag-arrow-thin)"/>
  <path class="arrow-fan" d="M 820,190 L 820,225 L 485,245" marker-end="url(#rag-arrow-thin)"/>
  <path class="arrow-fan" d="M 820,190 L 820,225 L 655,245" marker-end="url(#rag-arrow-thin)"/>
  <path class="arrow-fan" d="M 820,190 L 820,245" marker-end="url(#rag-arrow-thin)"/>

  <!-- Stores feed back up into retrieval (downward arrow from each store) -->
  <path class="arrow-thin" d="M 137.5,330 L 137.5,348" marker-end="url(#rag-arrow-thin)"/>
  <path class="arrow-thin" d="M 307.5,330 L 307.5,348" marker-end="url(#rag-arrow-thin)"/>
  <path class="arrow-thin" d="M 477.5,330 L 477.5,348" marker-end="url(#rag-arrow-thin)"/>
  <path class="arrow-thin" d="M 647.5,330 L 647.5,348" marker-end="url(#rag-arrow-thin)"/>
  <path class="arrow-thin" d="M 817.5,330 L 817.5,348" marker-end="url(#rag-arrow-thin)"/>

  <!-- ====================== RETRIEVAL LANE ====================== -->
  <text x="40" y="370" class="lane-label">RETRIEVAL</text>
  <line x1="40" y1="378" x2="920" y2="378" class="lane-track"/>

  <!-- Query card -->
  <rect x="60" y="400" width="130" height="80" rx="8" class="stage accent-query"/>
  <text x="125" y="424" class="heading" text-anchor="middle">Query</text>
  <text x="125" y="444" class="small" text-anchor="middle">User question</text>
  <text x="125" y="462" class="micro" text-anchor="middle">+ conv history</text>

  <!-- Dense HNSW (upper rail) -->
  <rect x="220" y="390" width="170" height="42" rx="6" class="stage-thin accent-dense"/>
  <text x="305" y="408" class="heading" text-anchor="middle">Dense · HNSW</text>
  <text x="305" y="424" class="micro" text-anchor="middle">vector cosine · top-N candidates</text>

  <!-- Sparse BM25 (lower rail) -->
  <rect x="220" y="448" width="170" height="42" rx="6" class="stage-thin accent-sparse"/>
  <text x="305" y="466" class="heading" text-anchor="middle">Sparse · BM25</text>
  <text x="305" y="482" class="micro" text-anchor="middle">keyword scoring · exact terms</text>

  <!-- RRF Fusion -->
  <rect x="420" y="400" width="170" height="80" rx="8" class="stage accent-fuse"/>
  <text x="505" y="424" class="heading" text-anchor="middle">RRF Fusion</text>
  <text x="505" y="444" class="small" text-anchor="middle">Reciprocal rank fusion</text>
  <text x="505" y="462" class="micro" text-anchor="middle">k = 60 · dense + sparse merge</text>

  <!-- Cohere rerank (optional) -->
  <rect x="620" y="400" width="170" height="80" rx="8" class="stage accent-rerank"/>
  <text x="705" y="424" class="heading" text-anchor="middle">Cohere Rerank</text>
  <text x="705" y="444" class="small" text-anchor="middle">rerank-v3.5 · neural relevance</text>
  <text x="705" y="462" class="micro" text-anchor="middle">cross-encoder · top-N → top-K</text>
  <!-- Optional badge -->
  <rect x="715" y="384" width="50" height="14" rx="3" class="opt-tag"/>
  <text x="740" y="394" class="opt-tag-text" text-anchor="middle">OPTIONAL</text>

  <!-- Top-K context -->
  <rect x="820" y="400" width="120" height="80" rx="8" class="stage accent-topk"/>
  <text x="880" y="424" class="heading" text-anchor="middle">Top-K</text>
  <text x="880" y="444" class="small" text-anchor="middle">default K=8</text>
  <text x="880" y="462" class="micro" text-anchor="middle">cited chunks</text>

  <!-- Retrieval arrows: Query → Dense + Sparse fan-out -->
  <path class="arrow-line" d="M 190,425 Q 205,425 205,410 L 220,411" marker-end="url(#rag-arrow)"/>
  <path class="arrow-line" d="M 190,455 Q 205,455 205,469 L 220,469" marker-end="url(#rag-arrow)"/>

  <!-- Dense + Sparse → RRF fan-in -->
  <path class="arrow-line" d="M 390,411 Q 405,411 405,425 L 420,425" marker-end="url(#rag-arrow)"/>
  <path class="arrow-line" d="M 390,469 Q 405,469 405,455 L 420,455" marker-end="url(#rag-arrow)"/>

  <!-- RRF → Cohere -->
  <path class="arrow-line" d="M 590,440 L 620,440" marker-end="url(#rag-arrow)"/>

  <!-- Cohere → Top-K -->
  <path class="arrow-line" d="M 790,440 L 820,440" marker-end="url(#rag-arrow)"/>

  <!-- Skip-cohere bypass arrow (dotted): RRF directly to Top-K -->
  <path class="arrow-thin" d="M 590,470 Q 705,505 820,470" stroke-dasharray="4 4" marker-end="url(#rag-arrow-thin)"/>
  <text x="705" y="525" class="micro" text-anchor="middle" font-style="italic">bypass when rerank disabled</text>

  <!-- ====================== ASSEMBLY ====================== -->
  <rect x="60" y="555" width="840" height="58" rx="8" class="assembly"/>
  <text x="480" y="580" class="heading" text-anchor="middle">Prompt Assembly</text>
  <text x="480" y="599" class="small" text-anchor="middle">Token-budgeted sections · source attribution per chunk · grounded answer with inline citations</text>

  <!-- Top-K → Assembly arrow -->
  <path class="arrow-line" d="M 880,480 L 880,555" marker-end="url(#rag-arrow)"/>

  <!-- Footer caption -->
  <text x="480" y="640" class="micro" text-anchor="middle">Hybrid retrieval = dense + sparse, fused with RRF. Rerank is optional and pays for itself when context budget is tight. The same store powers both retrieval rails.</text>
</svg>
