<?xml version="1.0" encoding="UTF-8"?>
<svg xmlns="http://www.w3.org/2000/svg" viewBox="0 0 1440 1020" width="1440" height="1020" role="img" aria-labelledby="sa-title sa-desc" font-family="Inter, system-ui, -apple-system, sans-serif">
  <title id="sa-title">AgentOS System Architecture</title>
  <desc id="sa-desc">Seven-layer architecture from top to bottom: API Surface (generateText, streamText, agent, agency, mission), Cognitive Substrate (GMI coordinator with PersonaOverlayManager, SentimentTracker, MetapromptExecutor), Memory and RAG (4-tier memory, 8 cognitive mechanisms, HyDE, GraphRAG, 7 vector backends), Tools and Capabilities (ToolOrchestrator, 100+ extension packs, 88 SKILL.md modules, CapabilityDiscovery, ForgeToolMetaTool), Guardrails and HITL (5-tier security, PII redaction, ML classifiers, Grounding Guard, HumanInteract), Orchestration (workflow, mission, AgentGraph, CompiledExecutionGraph, CheckpointStore), and I/O and Providers (voice pipeline, channels, media generation, 21 LLM providers, OpenRouter fanout).</desc>

  <defs>
    <!-- Brand gradient (indigo → violet → pink) used for header, divider, and flow ribbon -->
    <linearGradient id="sa-brand" x1="0%" y1="0%" x2="100%" y2="0%">
      <stop offset="0%" stop-color="#6366f1" />
      <stop offset="50%" stop-color="#8b5cf6" />
      <stop offset="100%" stop-color="#ec4899" />
    </linearGradient>

    <!-- Vertical flow ribbon gradient (top to bottom, brand to teal) -->
    <linearGradient id="sa-flow" x1="0%" y1="0%" x2="0%" y2="100%">
      <stop offset="0%" stop-color="#ec4899" stop-opacity="0.7" />
      <stop offset="25%" stop-color="#a78bfa" stop-opacity="0.7" />
      <stop offset="50%" stop-color="#06b6d4" stop-opacity="0.7" />
      <stop offset="75%" stop-color="#f59e0b" stop-opacity="0.7" />
      <stop offset="100%" stop-color="#8b5cf6" stop-opacity="0.7" />
    </linearGradient>

    <!-- Per-layer accent gradients on the left edge (color → transparent) -->
    <linearGradient id="sa-edge-1" x1="0%" y1="0%" x2="100%" y2="0%">
      <stop offset="0%" stop-color="#ec4899" stop-opacity="0.5" />
      <stop offset="100%" stop-color="#ec4899" stop-opacity="0" />
    </linearGradient>
    <linearGradient id="sa-edge-2" x1="0%" y1="0%" x2="100%" y2="0%">
      <stop offset="0%" stop-color="#a78bfa" stop-opacity="0.5" />
      <stop offset="100%" stop-color="#a78bfa" stop-opacity="0" />
    </linearGradient>
    <linearGradient id="sa-edge-3" x1="0%" y1="0%" x2="100%" y2="0%">
      <stop offset="0%" stop-color="#06b6d4" stop-opacity="0.5" />
      <stop offset="100%" stop-color="#06b6d4" stop-opacity="0" />
    </linearGradient>
    <linearGradient id="sa-edge-4" x1="0%" y1="0%" x2="100%" y2="0%">
      <stop offset="0%" stop-color="#10b981" stop-opacity="0.5" />
      <stop offset="100%" stop-color="#10b981" stop-opacity="0" />
    </linearGradient>
    <linearGradient id="sa-edge-5" x1="0%" y1="0%" x2="100%" y2="0%">
      <stop offset="0%" stop-color="#f43f5e" stop-opacity="0.5" />
      <stop offset="100%" stop-color="#f43f5e" stop-opacity="0" />
    </linearGradient>
    <linearGradient id="sa-edge-6" x1="0%" y1="0%" x2="100%" y2="0%">
      <stop offset="0%" stop-color="#f59e0b" stop-opacity="0.5" />
      <stop offset="100%" stop-color="#f59e0b" stop-opacity="0" />
    </linearGradient>
    <linearGradient id="sa-edge-7" x1="0%" y1="0%" x2="100%" y2="0%">
      <stop offset="0%" stop-color="#8b5cf6" stop-opacity="0.5" />
      <stop offset="100%" stop-color="#8b5cf6" stop-opacity="0" />
    </linearGradient>

    <!-- Ambient gradient orbs for the background -->
    <radialGradient id="sa-orb-1" cx="50%" cy="50%" r="50%">
      <stop offset="0%" stop-color="#6366f1" stop-opacity="0.08" />
      <stop offset="100%" stop-color="#6366f1" stop-opacity="0" />
    </radialGradient>
    <radialGradient id="sa-orb-2" cx="50%" cy="50%" r="50%">
      <stop offset="0%" stop-color="#ec4899" stop-opacity="0.06" />
      <stop offset="100%" stop-color="#ec4899" stop-opacity="0" />
    </radialGradient>

    <!-- Subtle dot grid -->
    <pattern id="sa-dots" x="0" y="0" width="40" height="40" patternUnits="userSpaceOnUse">
      <circle cx="20" cy="20" r="0.9" fill="rgba(99,102,241,0.18)" />
    </pattern>

    <!-- Glow for the numbered discs -->
    <filter id="sa-disc-glow" x="-50%" y="-50%" width="200%" height="200%">
      <feGaussianBlur stdDeviation="3" result="b" />
      <feMerge><feMergeNode in="b" /><feMergeNode in="SourceGraphic" /></feMerge>
    </filter>

    <!-- Larger ambient glow for the flow ribbon -->
    <filter id="sa-ribbon-glow" x="-50%" y="-50%" width="200%" height="200%">
      <feGaussianBlur stdDeviation="5" />
    </filter>

    <marker id="sa-arrow" viewBox="0 0 10 10" refX="9" refY="5" markerWidth="7" markerHeight="7" orient="auto">
      <path d="M 0 0 L 10 5 L 0 10 z" fill="#a78bfa" />
    </marker>

    <style><![CDATA[
      /* ── Page-level type ─────────────────────────────────────────────── */
      .h1   { font: 700 28px Inter, system-ui, sans-serif; fill: #0f172a; letter-spacing: -0.015em; }
      .h2   { font: 500 15px Inter, system-ui, sans-serif; fill: #475569; }

      /* ── Layer card ──────────────────────────────────────────────────── */
      .card        { fill: rgba(255, 255, 255, 0.92); stroke: rgba(99, 102, 241, 0.22); stroke-width: 1.2; }
      .num         { font: 800 20px Inter, system-ui, sans-serif; fill: #ffffff; }
      .layer-title { font: 700 18px Inter, system-ui, sans-serif; fill: #0f172a; letter-spacing: -0.01em; }
      .layer-sub   { font: 500 13px Inter, system-ui, sans-serif; fill: #475569; }
      .lbl         { font: 700 10px Inter, system-ui, sans-serif; fill: #64748b; letter-spacing: 0.14em; text-transform: uppercase; }
      .lbl-row     { font: 700 9.5px Inter, system-ui, sans-serif; fill: #64748b; letter-spacing: 0.12em; text-transform: uppercase; }

      /* ── Component pill (inside a layer card) ────────────────────────── */
      .pill        { fill: rgba(99, 102, 241, 0.07); stroke: rgba(99, 102, 241, 0.32); stroke-width: 1; }
      .pill-text   { font: 500 12px 'JetBrains Mono', ui-monospace, monospace; fill: #1e293b; }
      .pill-emph   { fill: rgba(139, 92, 246, 0.13); stroke: rgba(139, 92, 246, 0.45); stroke-width: 1; }
      .pill-emph-t { font: 600 12px 'JetBrains Mono', ui-monospace, monospace; fill: #5b21b6; }

      /* ── Per-layer disc colors ───────────────────────────────────────── */
      .disc-1 { fill: #ec4899; }
      .disc-2 { fill: #a78bfa; }
      .disc-3 { fill: #06b6d4; }
      .disc-4 { fill: #10b981; }
      .disc-5 { fill: #f43f5e; }
      .disc-6 { fill: #f59e0b; }
      .disc-7 { fill: #8b5cf6; }

      /* ── Layer connectors ────────────────────────────────────────────── */
      .layer-conn  { stroke: rgba(139, 92, 246, 0.4); stroke-width: 1.4; fill: none; stroke-dasharray: 4 4; }

      /* ── Dark mode adaptation (OS pref + Docusaurus toggle) ──────────── */
      @media (prefers-color-scheme: dark) {
        .h1          { fill: #f5f3ff; }
        .h2          { fill: #c7d2fe; }
        .card        { fill: rgba(15, 23, 42, 0.65); stroke: rgba(165, 180, 252, 0.22); }
        .layer-title { fill: #f1f5f9; }
        .layer-sub   { fill: #cbd5e1; }
        .lbl         { fill: #94a3b8; }
        .lbl-row     { fill: #94a3b8; }
        .pill        { fill: rgba(99, 102, 241, 0.16); stroke: rgba(165, 180, 252, 0.45); }
        .pill-text   { fill: #e2e8f0; }
        .pill-emph   { fill: rgba(139, 92, 246, 0.28); stroke: rgba(196, 181, 253, 0.65); }
        .pill-emph-t { fill: #d8b4fe; }
        .layer-conn  { stroke: rgba(165, 180, 252, 0.55); }
      }
      [data-theme='dark'] .h1          { fill: #f5f3ff; }
      [data-theme='dark'] .h2          { fill: #c7d2fe; }
      [data-theme='dark'] .card        { fill: rgba(15, 23, 42, 0.65); stroke: rgba(165, 180, 252, 0.22); }
      [data-theme='dark'] .layer-title { fill: #f1f5f9; }
      [data-theme='dark'] .layer-sub   { fill: #cbd5e1; }
      [data-theme='dark'] .lbl         { fill: #94a3b8; }
      [data-theme='dark'] .lbl-row     { fill: #94a3b8; }
      [data-theme='dark'] .pill        { fill: rgba(99, 102, 241, 0.16); stroke: rgba(165, 180, 252, 0.45); }
      [data-theme='dark'] .pill-text   { fill: #e2e8f0; }
      [data-theme='dark'] .pill-emph   { fill: rgba(139, 92, 246, 0.28); stroke: rgba(196, 181, 253, 0.65); }
      [data-theme='dark'] .pill-emph-t { fill: #d8b4fe; }
      [data-theme='dark'] .layer-conn  { stroke: rgba(165, 180, 252, 0.55); }
    ]]></style>
  </defs>

  <!-- Ambient background: dot grid + soft gradient orbs -->
  <rect x="0" y="0" width="1440" height="1020" fill="url(#sa-dots)" />
  <circle cx="180" cy="200" r="350" fill="url(#sa-orb-1)" />
  <circle cx="1280" cy="800" r="380" fill="url(#sa-orb-2)" />

  <!-- ════════════════════════════════════════════════════════════════════
       Title strip
       ════════════════════════════════════════════════════════════════════ -->
  <text x="60" y="56" class="h1">AgentOS · System architecture</text>
  <text x="60" y="84" class="h2">Seven cooperating layers · caller-facing API at the top · channels and providers at the floor · cognition + memory + safety in the middle</text>
  <line x1="60" y1="104" x2="1380" y2="104" stroke="url(#sa-brand)" stroke-width="2.5" />

  <!-- Vertical flow ribbon on the right edge — runs the full height of the stack -->
  <path d="M 1396 140 Q 1430 530 1396 940" stroke="url(#sa-flow)" stroke-width="3" fill="none" filter="url(#sa-ribbon-glow)" />
  <path d="M 1396 140 Q 1430 530 1396 940" stroke="url(#sa-flow)" stroke-width="1.6" fill="none" />

  <!-- ════════════════════════════════════════════════════════════════════
       LAYER 1 · API Surface (pink, y=130, height=110)
       ════════════════════════════════════════════════════════════════════ -->
  <g transform="translate(60, 130)">
    <rect width="1330" height="110" rx="16" class="card" />
    <rect width="8" height="110" rx="4" fill="#ec4899" />
    <rect x="8" width="200" height="110" fill="url(#sa-edge-1)" />
    <circle cx="48" cy="55" r="22" class="disc-1" filter="url(#sa-disc-glow)" />
    <text x="48" y="62" text-anchor="middle" class="num">1</text>
    <text x="88" y="38" class="layer-title">API surface</text>
    <text x="88" y="58" class="layer-sub">High-level helpers — pure functions for one-shot calls, factories for stateful agents</text>
    <text x="88" y="86" class="lbl">Caller-facing</text>

    <!-- Row 1: primary callables (emphasized monospace pills) -->
    <g transform="translate(420, 22)">
      <g><rect width="130" height="28" rx="8" class="pill-emph" /><text x="65" y="18" text-anchor="middle" class="pill-emph-t">generateText()</text></g>
      <g transform="translate(140, 0)"><rect width="120" height="28" rx="8" class="pill-emph" /><text x="60" y="18" text-anchor="middle" class="pill-emph-t">streamText()</text></g>
      <g transform="translate(270, 0)"><rect width="140" height="28" rx="8" class="pill-emph" /><text x="70" y="18" text-anchor="middle" class="pill-emph-t">generateObject()</text></g>
      <g transform="translate(420, 0)"><rect width="140" height="28" rx="8" class="pill-emph" /><text x="70" y="18" text-anchor="middle" class="pill-emph-t">generateImage()</text></g>
      <g transform="translate(570, 0)"><rect width="80" height="28" rx="8" class="pill-emph" /><text x="40" y="18" text-anchor="middle" class="pill-emph-t">agent()</text></g>
      <g transform="translate(660, 0)"><rect width="90" height="28" rx="8" class="pill-emph" /><text x="45" y="18" text-anchor="middle" class="pill-emph-t">agency()</text></g>
      <g transform="translate(760, 0)"><rect width="100" height="28" rx="8" class="pill-emph" /><text x="50" y="18" text-anchor="middle" class="pill-emph-t">mission()</text></g>
    </g>
    <!-- Row 2: descriptive sub-components -->
    <g transform="translate(420, 60)">
      <g><rect width="190" height="28" rx="8" class="pill" /><text x="95" y="18" text-anchor="middle" class="pill-text">prompt assembly · sessions</text></g>
      <g transform="translate(200, 0)"><rect width="190" height="28" rx="8" class="pill" /><text x="95" y="18" text-anchor="middle" class="pill-text">hooks · personality shaping</text></g>
      <g transform="translate(400, 0)"><rect width="200" height="28" rx="8" class="pill" /><text x="100" y="18" text-anchor="middle" class="pill-text">usage ledger forwarding</text></g>
    </g>
  </g>

  <!-- ════════════════════════════════════════════════════════════════════
       LAYER 2 · Cognitive Substrate (violet, y=250, height=110)
       ════════════════════════════════════════════════════════════════════ -->
  <g transform="translate(60, 250)">
    <rect width="1330" height="110" rx="16" class="card" />
    <rect width="8" height="110" rx="4" fill="#a78bfa" />
    <rect x="8" width="200" height="110" fill="url(#sa-edge-2)" />
    <circle cx="48" cy="55" r="22" class="disc-2" filter="url(#sa-disc-glow)" />
    <text x="48" y="62" text-anchor="middle" class="num">2</text>
    <text x="88" y="38" class="layer-title">Cognitive substrate (GMI)</text>
    <text x="88" y="58" class="layer-sub">Per-agent coordinator that owns persona, mood, working state, and the per-turn reasoning trace</text>
    <text x="88" y="86" class="lbl">Per-agent state</text>

    <g transform="translate(420, 22)">
      <g><rect width="170" height="28" rx="8" class="pill-emph" /><text x="85" y="18" text-anchor="middle" class="pill-emph-t">GMI coordinator</text></g>
      <g transform="translate(180, 0)"><rect width="200" height="28" rx="8" class="pill-emph" /><text x="100" y="18" text-anchor="middle" class="pill-emph-t">PersonaOverlayManager</text></g>
      <g transform="translate(390, 0)"><rect width="170" height="28" rx="8" class="pill-emph" /><text x="85" y="18" text-anchor="middle" class="pill-emph-t">SentimentTracker</text></g>
      <g transform="translate(570, 0)"><rect width="190" height="28" rx="8" class="pill-emph" /><text x="95" y="18" text-anchor="middle" class="pill-emph-t">MetapromptExecutor</text></g>
    </g>
    <g transform="translate(420, 60)">
      <g><rect width="180" height="28" rx="8" class="pill" /><text x="90" y="18" text-anchor="middle" class="pill-text">HEXACO 6-trait shaping</text></g>
      <g transform="translate(190, 0)"><rect width="200" height="28" rx="8" class="pill" /><text x="100" y="18" text-anchor="middle" class="pill-text">3-trigger metaprompt loop</text></g>
      <g transform="translate(400, 0)"><rect width="190" height="28" rx="8" class="pill" /><text x="95" y="18" text-anchor="middle" class="pill-text">reasoning trace buffer</text></g>
    </g>
  </g>

  <!-- ════════════════════════════════════════════════════════════════════
       LAYER 3 · Memory + RAG (cyan, y=370, height=160 — taller for sub-rows)
       ════════════════════════════════════════════════════════════════════ -->
  <g transform="translate(60, 370)">
    <rect width="1330" height="160" rx="16" class="card" />
    <rect width="8" height="160" rx="4" fill="#06b6d4" />
    <rect x="8" width="200" height="160" fill="url(#sa-edge-3)" />
    <circle cx="48" cy="55" r="22" class="disc-3" filter="url(#sa-disc-glow)" />
    <text x="48" y="62" text-anchor="middle" class="num">3</text>
    <text x="88" y="38" class="layer-title">Memory + RAG pipeline</text>
    <text x="88" y="58" class="layer-sub">4-tier cognitive memory with 8 mechanisms · HyDE + GraphRAG retrieval · 70.2% LongMemEval-M</text>
    <text x="88" y="86" class="lbl">Cognitive memory</text>

    <!-- Row 1: memory types -->
    <text x="88" y="112" class="lbl-row">Memory tiers</text>
    <g transform="translate(220, 95)">
      <g><rect width="120" height="28" rx="8" class="pill-emph" /><text x="60" y="18" text-anchor="middle" class="pill-emph-t">working</text></g>
      <g transform="translate(130, 0)"><rect width="120" height="28" rx="8" class="pill-emph" /><text x="60" y="18" text-anchor="middle" class="pill-emph-t">episodic</text></g>
      <g transform="translate(260, 0)"><rect width="120" height="28" rx="8" class="pill-emph" /><text x="60" y="18" text-anchor="middle" class="pill-emph-t">semantic</text></g>
      <g transform="translate(390, 0)"><rect width="140" height="28" rx="8" class="pill-emph" /><text x="70" y="18" text-anchor="middle" class="pill-emph-t">observational</text></g>
      <g transform="translate(540, 0)"><rect width="220" height="28" rx="8" class="pill-emph" /><text x="110" y="18" text-anchor="middle" class="pill-emph-t">8 cognitive mechanisms</text></g>
    </g>

    <!-- Row 2: mechanisms + retrieval -->
    <text x="88" y="148" class="lbl-row">Retrieval</text>
    <g transform="translate(220, 131)">
      <g><rect width="110" height="20" rx="6" class="pill" /><text x="55" y="14" text-anchor="middle" class="pill-text">Ebbinghaus</text></g>
      <g transform="translate(120, 0)"><rect width="130" height="20" rx="6" class="pill" /><text x="65" y="14" text-anchor="middle" class="pill-text">reconsolidation</text></g>
      <g transform="translate(260, 0)"><rect width="100" height="20" rx="6" class="pill" /><text x="50" y="14" text-anchor="middle" class="pill-text">RIF · FOK</text></g>
      <g transform="translate(370, 0)"><rect width="80" height="20" rx="6" class="pill" /><text x="40" y="14" text-anchor="middle" class="pill-text">HyDE</text></g>
      <g transform="translate(460, 0)"><rect width="100" height="20" rx="6" class="pill" /><text x="50" y="14" text-anchor="middle" class="pill-text">GraphRAG</text></g>
      <g transform="translate(570, 0)"><rect width="80" height="20" rx="6" class="pill" /><text x="40" y="14" text-anchor="middle" class="pill-text">rerank</text></g>
    </g>

    <!-- Row 3: vector backends -->
    <g transform="translate(700, 95)">
      <text x="0" y="20" class="lbl-row">Vector backends</text>
      <g transform="translate(140, 0)"><rect width="80" height="28" rx="8" class="pill" /><text x="40" y="18" text-anchor="middle" class="pill-text">SQLite</text></g>
      <g transform="translate(230, 0)"><rect width="80" height="28" rx="8" class="pill" /><text x="40" y="18" text-anchor="middle" class="pill-text">HNSW</text></g>
      <g transform="translate(320, 0)"><rect width="90" height="28" rx="8" class="pill" /><text x="45" y="18" text-anchor="middle" class="pill-text">Postgres</text></g>
      <g transform="translate(420, 0)"><rect width="80" height="28" rx="8" class="pill" /><text x="40" y="18" text-anchor="middle" class="pill-text">Qdrant</text></g>
      <g transform="translate(510, 0)"><rect width="90" height="28" rx="8" class="pill" /><text x="45" y="18" text-anchor="middle" class="pill-text">Pinecone</text></g>
      <g transform="translate(610, 0)"><rect width="80" height="28" rx="8" class="pill" /><text x="40" y="18" text-anchor="middle" class="pill-text">Neo4j</text></g>
    </g>
  </g>

  <!-- ════════════════════════════════════════════════════════════════════
       LAYER 4 · Tools, skills, extensions (emerald, y=540, height=110)
       ════════════════════════════════════════════════════════════════════ -->
  <g transform="translate(60, 540)">
    <rect width="1330" height="110" rx="16" class="card" />
    <rect width="8" height="110" rx="4" fill="#10b981" />
    <rect x="8" width="200" height="110" fill="url(#sa-edge-4)" />
    <circle cx="48" cy="55" r="22" class="disc-4" filter="url(#sa-disc-glow)" />
    <text x="48" y="62" text-anchor="middle" class="num">4</text>
    <text x="88" y="38" class="layer-title">Tools, skills, extensions</text>
    <text x="88" y="58" class="layer-sub">100+ extension packs · 88 curated SKILL.md modules · runtime tool forging with judge-gated approval</text>
    <text x="88" y="86" class="lbl">Capability surface</text>

    <g transform="translate(420, 22)">
      <g><rect width="160" height="28" rx="8" class="pill-emph" /><text x="80" y="18" text-anchor="middle" class="pill-emph-t">ToolOrchestrator</text></g>
      <g transform="translate(170, 0)"><rect width="170" height="28" rx="8" class="pill-emph" /><text x="85" y="18" text-anchor="middle" class="pill-emph-t">ExtensionRegistry</text></g>
      <g transform="translate(350, 0)"><rect width="140" height="28" rx="8" class="pill-emph" /><text x="70" y="18" text-anchor="middle" class="pill-emph-t">SkillRegistry</text></g>
      <g transform="translate(500, 0)"><rect width="190" height="28" rx="8" class="pill-emph" /><text x="95" y="18" text-anchor="middle" class="pill-emph-t">CapabilityDiscovery</text></g>
      <g transform="translate(700, 0)"><rect width="180" height="28" rx="8" class="pill-emph" /><text x="90" y="18" text-anchor="middle" class="pill-emph-t">ForgeToolMetaTool</text></g>
    </g>
    <g transform="translate(420, 60)">
      <g><rect width="170" height="28" rx="8" class="pill" /><text x="85" y="18" text-anchor="middle" class="pill-text">100+ extension packs</text></g>
      <g transform="translate(180, 0)"><rect width="190" height="28" rx="8" class="pill" /><text x="95" y="18" text-anchor="middle" class="pill-text">88 curated SKILL.md</text></g>
      <g transform="translate(380, 0)"><rect width="210" height="28" rx="8" class="pill" /><text x="105" y="18" text-anchor="middle" class="pill-text">3-tier semantic discovery</text></g>
      <g transform="translate(600, 0)"><rect width="190" height="28" rx="8" class="pill" /><text x="95" y="18" text-anchor="middle" class="pill-text">node:vm sandbox forge</text></g>
    </g>
  </g>

  <!-- ════════════════════════════════════════════════════════════════════
       LAYER 5 · Guardrails + HITL (rose, y=660, height=110)
       ════════════════════════════════════════════════════════════════════ -->
  <g transform="translate(60, 660)">
    <rect width="1330" height="110" rx="16" class="card" />
    <rect width="8" height="110" rx="4" fill="#f43f5e" />
    <rect x="8" width="200" height="110" fill="url(#sa-edge-5)" />
    <circle cx="48" cy="55" r="22" class="disc-5" filter="url(#sa-disc-glow)" />
    <text x="48" y="62" text-anchor="middle" class="num">5</text>
    <text x="88" y="38" class="layer-title">Guardrails + HITL</text>
    <text x="88" y="58" class="layer-sub">Two-phase dispatcher · 4-tier PII redaction · ONNX classifiers · NLI grounding · 5 approval triggers</text>
    <text x="88" y="86" class="lbl">Safety + approval</text>

    <g transform="translate(420, 22)">
      <g><rect width="180" height="28" rx="8" class="pill-emph" /><text x="90" y="18" text-anchor="middle" class="pill-emph-t">GuardrailDispatcher</text></g>
      <g transform="translate(190, 0)"><rect width="150" height="28" rx="8" class="pill-emph" /><text x="75" y="18" text-anchor="middle" class="pill-emph-t">PII redaction</text></g>
      <g transform="translate(350, 0)"><rect width="160" height="28" rx="8" class="pill-emph" /><text x="80" y="18" text-anchor="middle" class="pill-emph-t">ML classifiers</text></g>
      <g transform="translate(520, 0)"><rect width="170" height="28" rx="8" class="pill-emph" /><text x="85" y="18" text-anchor="middle" class="pill-emph-t">Grounding Guard</text></g>
      <g transform="translate(700, 0)"><rect width="150" height="28" rx="8" class="pill-emph" /><text x="75" y="18" text-anchor="middle" class="pill-emph-t">HumanInteract</text></g>
    </g>
    <g transform="translate(420, 60)">
      <g><rect width="190" height="28" rx="8" class="pill" /><text x="95" y="18" text-anchor="middle" class="pill-text">regex · NER · LLM judge</text></g>
      <g transform="translate(200, 0)"><rect width="200" height="28" rx="8" class="pill" /><text x="100" y="18" text-anchor="middle" class="pill-text">toxicity · prompt-injection</text></g>
      <g transform="translate(410, 0)"><rect width="170" height="28" rx="8" class="pill" /><text x="85" y="18" text-anchor="middle" class="pill-text">NLI hallucination</text></g>
      <g transform="translate(590, 0)"><rect width="220" height="28" rx="8" class="pill" /><text x="110" y="18" text-anchor="middle" class="pill-text">cli · webhook · slack · judge</text></g>
    </g>
  </g>

  <!-- ════════════════════════════════════════════════════════════════════
       LAYER 6 · Orchestration (amber, y=780, height=110)
       ════════════════════════════════════════════════════════════════════ -->
  <g transform="translate(60, 780)">
    <rect width="1330" height="110" rx="16" class="card" />
    <rect width="8" height="110" rx="4" fill="#f59e0b" />
    <rect x="8" width="200" height="110" fill="url(#sa-edge-6)" />
    <circle cx="48" cy="55" r="22" class="disc-6" filter="url(#sa-disc-glow)" />
    <text x="48" y="62" text-anchor="middle" class="num">6</text>
    <text x="88" y="38" class="layer-title">Orchestration</text>
    <text x="88" y="58" class="layer-sub">3 authoring APIs compile to one IR · graph runtime executes every plan · checkpoint + resume across nodes</text>
    <text x="88" y="86" class="lbl">Multi-agent flow</text>

    <g transform="translate(420, 22)">
      <g><rect width="130" height="28" rx="8" class="pill-emph" /><text x="65" y="18" text-anchor="middle" class="pill-emph-t">workflow()</text></g>
      <g transform="translate(140, 0)"><rect width="120" height="28" rx="8" class="pill-emph" /><text x="60" y="18" text-anchor="middle" class="pill-emph-t">mission()</text></g>
      <g transform="translate(270, 0)"><rect width="150" height="28" rx="8" class="pill-emph" /><text x="75" y="18" text-anchor="middle" class="pill-emph-t">AgentGraph</text></g>
      <g transform="translate(430, 0)"><rect width="200" height="28" rx="8" class="pill-emph" /><text x="100" y="18" text-anchor="middle" class="pill-emph-t">CompiledExecutionGraph</text></g>
      <g transform="translate(640, 0)"><rect width="170" height="28" rx="8" class="pill-emph" /><text x="85" y="18" text-anchor="middle" class="pill-emph-t">CheckpointStore</text></g>
    </g>
    <g transform="translate(420, 60)">
      <g><rect width="220" height="28" rx="8" class="pill" /><text x="110" y="18" text-anchor="middle" class="pill-text">6 strategies · parallel · debate · …</text></g>
      <g transform="translate(230, 0)"><rect width="200" height="28" rx="8" class="pill" /><text x="100" y="18" text-anchor="middle" class="pill-text">Tree-of-Thought planner</text></g>
      <g transform="translate(440, 0)"><rect width="220" height="28" rx="8" class="pill" /><text x="110" y="18" text-anchor="middle" class="pill-text">resume + time-travel debug</text></g>
    </g>
  </g>

  <!-- ════════════════════════════════════════════════════════════════════
       LAYER 7 · I/O + Providers (violet, y=900, height=110)
       ════════════════════════════════════════════════════════════════════ -->
  <g transform="translate(60, 900)">
    <rect width="1330" height="110" rx="16" class="card" />
    <rect width="8" height="110" rx="4" fill="#8b5cf6" />
    <rect x="8" width="200" height="110" fill="url(#sa-edge-7)" />
    <circle cx="48" cy="55" r="22" class="disc-7" filter="url(#sa-disc-glow)" />
    <text x="48" y="62" text-anchor="middle" class="num">7</text>
    <text x="88" y="38" class="layer-title">I/O + providers</text>
    <text x="88" y="58" class="layer-sub">Voice pipeline · channel adapters · media generation · 21 LLM providers with fallback chains</text>
    <text x="88" y="86" class="lbl">External surface</text>

    <g transform="translate(420, 22)">
      <g><rect width="150" height="28" rx="8" class="pill-emph" /><text x="75" y="18" text-anchor="middle" class="pill-emph-t">Voice (STT · TTS)</text></g>
      <g transform="translate(160, 0)"><rect width="120" height="28" rx="8" class="pill-emph" /><text x="60" y="18" text-anchor="middle" class="pill-emph-t">Channels</text></g>
      <g transform="translate(290, 0)"><rect width="220" height="28" rx="8" class="pill-emph" /><text x="110" y="18" text-anchor="middle" class="pill-emph-t">Media (img · video · music)</text></g>
      <g transform="translate(520, 0)"><rect width="170" height="28" rx="8" class="pill-emph" /><text x="85" y="18" text-anchor="middle" class="pill-emph-t">21 LLM providers</text></g>
      <g transform="translate(700, 0)"><rect width="180" height="28" rx="8" class="pill-emph" /><text x="90" y="18" text-anchor="middle" class="pill-emph-t">OpenRouter fanout</text></g>
    </g>
    <g transform="translate(420, 60)">
      <g><rect width="210" height="28" rx="8" class="pill" /><text x="105" y="18" text-anchor="middle" class="pill-text">VAD · barge-in · endpoint detection</text></g>
      <g transform="translate(220, 0)"><rect width="230" height="28" rx="8" class="pill" /><text x="115" y="18" text-anchor="middle" class="pill-text">Discord · Slack · Telegram · Twilio</text></g>
      <g transform="translate(460, 0)"><rect width="200" height="28" rx="8" class="pill" /><text x="100" y="18" text-anchor="middle" class="pill-text">Stability · Runway · Suno · …</text></g>
    </g>
  </g>

  <!-- ════════════════════════════════════════════════════════════════════
       Layer-to-layer connectors (centered vertical, between cards)
       ════════════════════════════════════════════════════════════════════ -->
  <path d="M 725 240 L 725 250" class="layer-conn" marker-end="url(#sa-arrow)" />
  <path d="M 725 360 L 725 370" class="layer-conn" marker-end="url(#sa-arrow)" />
  <path d="M 725 530 L 725 540" class="layer-conn" marker-end="url(#sa-arrow)" />
  <path d="M 725 650 L 725 660" class="layer-conn" marker-end="url(#sa-arrow)" />
  <path d="M 725 770 L 725 780" class="layer-conn" marker-end="url(#sa-arrow)" />
  <path d="M 725 890 L 725 900" class="layer-conn" marker-end="url(#sa-arrow)" />
</svg>
